<svg id="color" enable-background="new 0 0 24 24" height="512" viewBox="0 0 24 24" width="512" xmlns="http://www.w3.org/2000/svg"><path d="m12.192 5.152 2.545-2.036c1.295-1.031.562-3.116-1.087-3.116h-9.3c-1.648 0-2.382 2.084-1.088 3.116l2.546 2.036c-3.176 2.431-5.808 7.793-5.808 12.098 0 3.359 1.778 6.75 5.75 6.75h6.75c3.393 0 5.5-2.587 5.5-6.75 0-4.305-2.632-9.667-5.808-12.098z" fill="#4caf50"/><path d="m9.5 14c-.657 0-1.5.152-1.5-.5 0-.276.225-.5.5-.5h2.5c.553 0 1-.448 1-1 0-1.104-1-1-2-1 0-1 .105-2-1-2-.553 0-1 .448-1 1v1.051c-1.14.232-2 1.242-2 2.449 0 1.378 1.121 2.5 2.5 2.5.657 0 1.5-.152 1.5.5 0 .276-.225.5-.5.5h-2.5c-.553 0-1 .448-1 1s.447 1 1 1h1v1c0 .552.447 1 1 1 1.121 0 1-1.051 1-2.051 1.14-.232 2-1.242 2-2.449 0-1.378-1.121-2.5-2.5-2.5z" fill="#fff"/><path d="m9 13h-.5c-.661 0-.661 1 0 1h.5zm0-7h-4.162c-2.725 2.685-4.838 7.392-4.838 11.25 0 3.359 1.777 6.75 5.75 6.75h3.25v-3c-.553 0-1-.448-1-1v-1h-1c-.553 0-1-.448-1-1s.447-1 1-1h2v-1.013c-.168.004-.339.013-.5.013-1.379 0-2.5-1.122-2.5-2.5 0-1.207.86-2.217 2-2.449v-1.051c0-.552.447-1 1-1zm0-6h-4.65c-1.648 0-2.382 2.084-1.088 3.116l1.73 1.384h4.008z" fill="#429846"/><path d="m9 17h-2c-.553 0-1 .448-1 1s.447 1 1 1h1v1c0 .552.447 1 1 1zm0-8c-.553 0-1 .448-1 1v1.051c-1.14.232-2 1.242-2 2.449 0 1.378 1.121 2.5 2.5 2.5.161 0 .332-.009.5-.013v-1.987h-.5c-.661 0-.661-1 0-1h.5z" fill="#dedede"/><path d="m14.25 4.5h-10.5c-.414 0-.75.336-.75.75s.336.75.75.75h10.5c.414 0 .75-.336.75-.75s-.336-.75-.75-.75z" fill="#388e3c"/><path d="m21 3.25h-1.5v-1.5c0-.138-.112-.25-.25-.25h-2.5c-.138 0-.25.112-.25.25v1.5h-1.5v-1.5c0-.965.785-1.75 1.75-1.75h2.5c.965 0 1.75.785 1.75 1.75z" fill="#607d8b"/><path d="m18 7.581-6-2.857v-.474c0-.965.785-1.75 1.75-1.75h8.5c.965 0 1.75.785 1.75 1.75v.474z" fill="#64b5f6"/><path d="m22.25 10.5h-8.5c-.965 0-1.75-.785-1.75-1.75v-4.25l6 2 6-2v4.25c0 .965-.785 1.75-1.75 1.75z" fill="#2196f3"/><path d="m9 4.5h-4.008-1.242c-.414 0-.75.336-.75.75s.336.75.75.75h1.088 4.162z" fill="#317c34"/><path d="m18 0h-1.25c-.965 0-1.75.785-1.75 1.75v.75h1.5v-.75c0-.138.112-.25.25-.25h1.25z" fill="#546d79"/><path d="m18 2.5h-1.5-1.5-1.25c-.965 0-1.75.785-1.75 1.75v.474-.224l6 2z" fill="#579ed6"/><path d="m12 4.5v.224 4.026c0 .965.785 1.75 1.75 1.75h4.25v-4z" fill="#1d83d4"/></svg>